<svg width="135" height="46" viewBox="0 0 135 46" fill="none" xmlns="http://www.w3.org/2000/svg">
<g id="es.svg" clip-path="url(#clip0_1_254)">
<g id="Group">
<g id="Group_2">
<g id="Group_3">
<path id="Vector" d="M124.141 0.502099H10.9756C10.5631 0.502099 10.1555 0.502099 9.74409 0.504349C9.3997 0.506599 9.05806 0.513135 8.71037 0.518635C7.95501 0.527524 7.20143 0.593977 6.45618 0.717416C5.71197 0.843543 4.99108 1.08133 4.31788 1.42273C3.64551 1.76702 3.03114 2.21438 2.49706 2.7486C1.96019 3.28132 1.51266 3.89706 1.17169 4.57216C0.829773 5.24592 0.59269 5.96791 0.468624 6.71321C0.343379 7.45756 0.275983 8.21049 0.267042 8.96525C0.256603 9.31015 0.255501 9.65619 0.25 10.0011V36.0023C0.255501 36.3516 0.256603 36.69 0.267042 37.0394C0.275986 37.7941 0.343382 38.547 0.468624 39.2913C0.592347 40.037 0.829445 40.7595 1.17169 41.4335C1.5125 42.1064 1.96009 42.7196 2.49706 43.2494C3.02911 43.786 3.64388 44.2337 4.31788 44.5753C4.99108 44.9176 5.71189 45.1568 6.45618 45.2849C7.20156 45.4073 7.95506 45.4738 8.71037 45.4838C9.05806 45.4914 9.3997 45.4958 9.74409 45.4958C10.1555 45.4981 10.5631 45.4981 10.9756 45.4981H124.141C124.545 45.4981 124.956 45.4981 125.36 45.4958C125.703 45.4958 126.054 45.4914 126.397 45.4838C127.151 45.4744 127.903 45.4079 128.647 45.2849C129.393 45.1559 130.117 44.9168 130.793 44.5753C131.467 44.2335 132.081 43.7858 132.612 43.2494C133.148 42.7176 133.597 42.1048 133.942 41.4335C134.281 40.759 134.516 40.0366 134.638 39.2913C134.763 38.5469 134.833 37.7942 134.847 37.0394C134.851 36.69 134.851 36.3516 134.851 36.0023C134.86 35.5937 134.86 35.1872 134.86 34.7719V11.2293C134.86 10.8173 134.86 10.4087 134.851 10.0011C134.851 9.65619 134.851 9.31015 134.847 8.96521C134.833 8.21038 134.763 7.45762 134.638 6.71316C134.516 5.9683 134.281 5.24636 133.942 4.57212C133.247 3.21895 132.146 2.11748 130.793 1.42263C130.117 1.08206 129.393 0.844339 128.647 0.717315C127.903 0.593332 127.151 0.526856 126.397 0.518478C126.054 0.512988 125.703 0.506396 125.36 0.504203C124.956 0.501953 124.545 0.502099 124.141 0.502099Z" fill="#A6A6A6"/>
<path id="Vector_2" d="M9.74959 44.5137C9.40685 44.5137 9.0724 44.5093 8.73235 44.5017C8.02792 44.4925 7.32514 44.4312 6.62976 44.3182C5.98136 44.2065 5.35323 43.9988 4.76609 43.7019C4.18434 43.4074 3.65374 43.0213 3.19461 42.5583C2.72884 42.1008 2.34106 41.5701 2.04664 40.9874C1.74898 40.4008 1.54298 39.7722 1.43582 39.1232C1.3201 38.4259 1.25748 37.7208 1.24852 37.014C1.24139 36.7768 1.23206 35.9869 1.23206 35.9869V10.0011C1.23206 10.0011 1.242 9.2233 1.24858 8.9948C1.25716 8.28913 1.31941 7.58514 1.43479 6.88891C1.54214 6.23818 1.7483 5.60768 2.04612 5.01922C2.33946 4.43687 2.72508 3.90583 3.18805 3.44667C3.6505 2.98314 4.1828 2.59503 4.76554 2.29649C5.35133 2.00051 5.97827 1.79425 6.62536 1.68461C7.32302 1.57051 8.02825 1.50882 8.73512 1.50006L9.75014 1.48633H125.354L126.382 1.50061C127.082 1.50894 127.781 1.57008 128.472 1.68351C129.126 1.79452 129.759 2.00222 130.352 2.29979C131.519 2.90144 132.469 3.8533 133.068 5.02196C133.361 5.60636 133.564 6.23172 133.67 6.87683C133.787 7.57877 133.852 8.2883 133.866 8.99975C133.869 9.31833 133.869 9.66052 133.869 10.0011C133.878 10.4229 133.878 10.8244 133.878 11.2292V34.7719C133.878 35.1805 133.878 35.5793 133.869 35.9814C133.869 36.3472 133.869 36.6823 133.865 37.0272C133.852 37.7259 133.787 38.4228 133.672 39.1122C133.567 39.7658 133.363 40.3994 133.065 40.9908C132.769 41.5672 132.383 42.0932 131.923 42.5495C131.463 43.015 130.931 43.4034 130.348 43.6997C129.758 43.999 129.125 44.2075 128.472 44.3182C127.777 44.4318 127.074 44.4931 126.369 44.5017C126.04 44.5093 125.695 44.5137 125.36 44.5137L124.141 44.516L9.74959 44.5137Z" fill="black"/>
</g>
<g id="&#60;Group&#62;">
<g id="&#60;Group&#62;_2">
<g id="&#60;Group&#62;_3">
<path id="&#60;Path&#62;" d="M28.1125 23.338C28.1246 22.3991 28.374 21.4785 28.8375 20.6618C29.301 19.8452 29.9635 19.1591 30.7634 18.6673C30.2552 17.9416 29.5848 17.3443 28.8055 16.923C28.0261 16.5017 27.1593 16.2678 26.2737 16.2401C24.3848 16.0419 22.5535 17.3705 21.5909 17.3705C20.6097 17.3705 19.1276 16.2598 17.5317 16.2927C16.4994 16.326 15.4934 16.6262 14.6116 17.164C13.7298 17.7017 13.0023 18.4587 12.5001 19.3612C10.3246 23.1279 11.9473 28.6636 14.0313 31.7082C15.074 33.1991 16.2926 34.8645 17.8871 34.8054C19.4474 34.7407 20.0301 33.8105 21.9135 33.8105C23.7795 33.8105 24.3262 34.8054 25.953 34.7679C27.6273 34.7407 28.6822 33.2703 29.6883 31.7653C30.4374 30.703 31.0139 29.529 31.3963 28.2866C30.4236 27.8752 29.5935 27.1865 29.0096 26.3065C28.4256 25.4265 28.1136 24.3941 28.1125 23.338Z" fill="white"/>
<path id="&#60;Path&#62;_2" d="M25.0397 14.2379C25.9526 13.142 26.4023 11.7334 26.2934 10.3113C24.8987 10.4578 23.6104 11.1243 22.6852 12.1782C22.2328 12.693 21.8864 13.2919 21.6656 13.9407C21.4449 14.5896 21.3541 15.2755 21.3986 15.9594C22.0962 15.9666 22.7864 15.8154 23.4171 15.5172C24.0477 15.219 24.6026 14.7816 25.0397 14.2379Z" fill="white"/>
</g>
</g>
<g id="Group_4">
<path id="Vector_3" d="M47.8358 31.0312H42.5112L41.2325 34.8069H38.9772L44.0206 20.8379H46.3637L51.4071 34.8069H49.1134L47.8358 31.0312ZM43.0626 29.2889H47.2833L45.2026 23.1613H45.1444L43.0626 29.2889Z" fill="white"/>
<path id="Vector_4" d="M62.2991 29.7152C62.2991 32.88 60.6051 34.9134 58.0489 34.9134C57.4013 34.9473 56.7573 34.7981 56.1906 34.483C55.6239 34.1679 55.1573 33.6995 54.8444 33.1316H54.7961V38.1761H52.7056V24.6224H54.7291V26.3163H54.7675C55.0948 25.7511 55.5692 25.2852 56.1403 24.9681C56.7113 24.6511 57.3576 24.4947 58.0104 24.5158C60.5952 24.5158 62.2991 26.5591 62.2991 29.7152ZM60.1503 29.7152C60.1503 27.6532 59.0848 26.2976 57.4589 26.2976C55.8617 26.2976 54.7873 27.6818 54.7873 29.7152C54.7873 31.7672 55.8617 33.1415 57.4589 33.1415C59.0848 33.1415 60.1503 31.7958 60.1503 29.7152Z" fill="white"/>
<path id="Vector_5" d="M73.5085 29.7152C73.5085 32.88 71.8146 34.9134 69.2583 34.9134C68.6107 34.9473 67.9667 34.7981 67.4 34.483C66.8333 34.1679 66.3668 33.6995 66.0539 33.1316H66.0055V38.1761H63.915V24.6223H65.9385V26.3163H65.9769C66.3042 25.7511 66.7786 25.2851 67.3497 24.9681C67.9207 24.6511 68.567 24.4947 69.2198 24.5158C71.8047 24.5158 73.5085 26.5591 73.5085 29.7152ZM71.3598 29.7152C71.3598 27.6532 70.2942 26.2976 68.6684 26.2976C67.0711 26.2976 65.9967 27.6818 65.9967 29.7152C65.9967 31.7672 67.0711 33.1415 68.6684 33.1415C70.2942 33.1415 71.3598 31.7958 71.3598 29.7152Z" fill="white"/>
<path id="Vector_6" d="M80.917 30.9148C81.0719 32.3 82.4177 33.2096 84.2566 33.2096C86.0186 33.2096 87.2864 32.3 87.2864 31.051C87.2864 29.9667 86.5218 29.3175 84.7114 28.8726L82.901 28.4364C80.3359 27.8169 79.1451 26.6173 79.1451 24.6707C79.1451 22.2605 81.2455 20.605 84.228 20.605C87.1798 20.605 89.2033 22.2605 89.2714 24.6707H87.1611C87.0348 23.2766 85.8824 22.4351 84.1983 22.4351C82.5143 22.4351 81.3619 23.2865 81.3619 24.5257C81.3619 25.5132 82.098 26.0944 83.8984 26.5392L85.4375 26.9171C88.3036 27.5949 89.4944 28.7462 89.4944 30.7895C89.4944 33.4029 87.4126 35.0397 84.1017 35.0397C81.0038 35.0397 78.9122 33.4413 78.7771 30.9147L80.917 30.9148Z" fill="white"/>
<path id="Vector_7" d="M94.0061 22.2122V24.6223H95.9428V26.2778H94.0061V31.8924C94.0061 32.7647 94.3939 33.1711 95.2452 33.1711C95.4751 33.1671 95.7047 33.151 95.9329 33.1228V34.7684C95.5501 34.8399 95.1611 34.8723 94.7717 34.865C92.7098 34.865 91.9057 34.0906 91.9057 32.1154V26.2778H90.4249V24.6223H91.9056V22.2122H94.0061Z" fill="white"/>
<path id="Vector_8" d="M97.0644 29.7151C97.0644 26.5107 98.9517 24.4971 101.895 24.4971C104.848 24.4971 106.726 26.5106 106.726 29.7151C106.726 32.9283 104.857 34.9331 101.895 34.9331C98.933 34.9331 97.0644 32.9283 97.0644 29.7151ZM104.596 29.7151C104.596 27.5169 103.589 26.2196 101.895 26.2196C100.201 26.2196 99.1945 27.5268 99.1945 29.7151C99.1945 31.9221 100.201 33.2095 101.895 33.2095C103.589 33.2095 104.596 31.9221 104.596 29.7151Z" fill="white"/>
<path id="Vector_9" d="M108.45 24.6223H110.443V26.3557H110.492C110.627 25.8143 110.944 25.3359 111.39 25.0008C111.836 24.6657 112.384 24.4944 112.942 24.5157C113.182 24.5148 113.423 24.541 113.658 24.5937V26.5491C113.354 26.4561 113.036 26.4135 112.719 26.4227C112.415 26.4104 112.112 26.464 111.831 26.5797C111.55 26.6955 111.297 26.8706 111.09 27.0932C110.883 27.3158 110.727 27.5806 110.632 27.8693C110.537 28.1581 110.506 28.4639 110.54 28.7659V34.8068H108.45L108.45 24.6223Z" fill="white"/>
<path id="Vector_10" d="M123.296 31.8155C123.015 33.6643 121.215 34.9331 118.911 34.9331C115.948 34.9331 114.109 32.9481 114.109 29.7634C114.109 26.5689 115.958 24.4971 118.823 24.4971C121.641 24.4971 123.413 26.4327 123.413 29.5207V30.2369H116.22V30.3632C116.186 30.7381 116.233 31.1156 116.357 31.4709C116.481 31.8262 116.679 32.1511 116.938 32.4239C117.198 32.6968 117.512 32.9113 117.86 33.0534C118.209 33.1955 118.583 33.2618 118.959 33.248C119.453 33.2943 119.949 33.1799 120.373 32.9218C120.797 32.6637 121.126 32.2757 121.311 31.8155L123.296 31.8155ZM116.229 28.7759H121.321C121.34 28.4388 121.289 28.1016 121.171 27.7853C121.053 27.4689 120.871 27.1803 120.637 26.9376C120.402 26.6949 120.12 26.5033 119.808 26.3748C119.496 26.2463 119.161 26.1838 118.823 26.191C118.483 26.189 118.145 26.2544 117.83 26.3835C117.515 26.5125 117.229 26.7027 116.988 26.943C116.747 27.1833 116.555 27.469 116.425 27.7836C116.295 28.0982 116.229 28.4354 116.229 28.7759Z" fill="white"/>
</g>
</g>
</g>
<g id="&#60;Group&#62;_4">
<g id="Group_5">
<path id="Vector_11" d="M42.8007 10.3235C43.2389 10.2921 43.6787 10.3583 44.0883 10.5174C44.4979 10.6765 44.8671 10.9245 45.1692 11.2436C45.4713 11.5626 45.6989 11.9447 45.8355 12.3624C45.972 12.78 46.0142 13.2228 45.9589 13.6587C45.9589 15.803 44.8 17.0356 42.8007 17.0356H40.3762V10.3235H42.8007ZM41.4187 16.0864H42.6842C42.9974 16.1051 43.3108 16.0538 43.6016 15.9361C43.8925 15.8184 44.1534 15.6374 44.3654 15.4061C44.5775 15.1749 44.7353 14.8993 44.8273 14.5993C44.9194 14.2994 44.9435 13.9827 44.8977 13.6724C44.9402 13.3632 44.9137 13.0485 44.8202 12.7508C44.7267 12.453 44.5685 12.1797 44.3569 11.9503C44.1454 11.7209 43.8857 11.5411 43.5965 11.4239C43.3073 11.3066 42.9958 11.2548 42.6842 11.2721H41.4187V16.0864Z" fill="white"/>
<path id="Vector_12" d="M51.6713 15.6678C51.5355 16.1308 51.2412 16.5312 50.84 16.7991C50.4387 17.067 49.9561 17.1853 49.4764 17.1333C49.1427 17.1421 48.8111 17.0782 48.5046 16.946C48.198 16.8138 47.9239 16.6164 47.7013 16.3677C47.4787 16.1189 47.3128 15.8247 47.2153 15.5054C47.1178 15.1861 47.0909 14.8495 47.1366 14.5188C47.0921 14.1871 47.1195 13.8497 47.2168 13.5294C47.3141 13.2092 47.479 12.9136 47.7005 12.6627C47.9219 12.4117 48.1947 12.2113 48.5004 12.075C48.806 11.9386 49.1374 11.8695 49.472 11.8724C50.8815 11.8724 51.7317 12.8353 51.7317 14.4259V14.7748H48.155V14.8308C48.1393 15.0167 48.1627 15.2038 48.2235 15.3801C48.2844 15.5564 48.3815 15.7181 48.5085 15.8547C48.6355 15.9913 48.7897 16.0999 48.9611 16.1735C49.1325 16.247 49.3174 16.284 49.504 16.2819C49.7431 16.3106 49.9853 16.2675 50.1999 16.1582C50.4145 16.0488 50.5917 15.8781 50.7091 15.6678L51.6713 15.6678ZM48.1549 14.0354H50.7134C50.726 13.8654 50.7029 13.6947 50.6455 13.5341C50.5882 13.3736 50.4979 13.2268 50.3805 13.1032C50.2631 12.9796 50.1211 12.882 49.9637 12.8166C49.8063 12.7511 49.6369 12.7193 49.4665 12.7232C49.2936 12.7211 49.1221 12.7535 48.9619 12.8187C48.8018 12.8839 48.6563 12.9805 48.5341 13.1028C48.4118 13.2251 48.3153 13.3706 48.2502 13.5308C48.1851 13.6909 48.1526 13.8625 48.1549 14.0354Z" fill="white"/>
<path id="Vector_13" d="M54.9252 11.8723C56.0644 11.8723 56.8092 12.4024 56.9069 13.2955H55.9479C55.8557 12.9236 55.492 12.6863 54.9252 12.6863C54.3671 12.6863 53.9431 12.9511 53.9431 13.3466C53.9431 13.6491 54.1991 13.8398 54.7484 13.9656L55.5898 14.1606C56.5532 14.3841 57.0047 14.7983 57.0047 15.5425C57.0047 16.4961 56.116 17.1332 54.9065 17.1332C53.7014 17.1332 52.916 16.5889 52.827 15.6914H53.8277C53.914 15.905 54.0695 16.0834 54.2693 16.1981C54.4691 16.3127 54.7016 16.3569 54.9296 16.3236C55.5524 16.3236 55.9952 16.0446 55.9952 15.6397C55.9952 15.3376 55.7579 15.1421 55.2504 15.0213L54.3671 14.8164C53.4037 14.5884 52.9577 14.1562 52.9577 13.4026C52.9577 12.5045 53.7805 11.8723 54.9252 11.8723Z" fill="white"/>
<path id="Vector_14" d="M61.668 13.6257C61.6042 13.363 61.4485 13.1319 61.2291 12.9741C61.0097 12.8163 60.741 12.7423 60.4717 12.7655C59.6346 12.7655 59.1227 13.4071 59.1227 14.4864C59.1227 15.5844 59.639 16.2402 60.4717 16.2402C60.7383 16.2711 61.007 16.2035 61.2273 16.0502C61.4477 15.8968 61.6044 15.6683 61.668 15.4075H62.6402C62.5759 15.9204 62.3138 16.3879 61.9097 16.7103C61.5056 17.0327 60.9916 17.1845 60.4772 17.1333C60.1385 17.144 59.8015 17.0806 59.4899 16.9474C59.1783 16.8143 58.8995 16.6147 58.6731 16.3626C58.4467 16.1105 58.2781 15.812 58.1791 15.4879C58.0801 15.1638 58.0531 14.822 58.0999 14.4864C58.0554 14.1533 58.0841 13.8144 58.1841 13.4936C58.2841 13.1727 58.4528 12.8775 58.6787 12.6286C58.9045 12.3797 59.182 12.183 59.4917 12.0525C59.8013 11.9219 60.1358 11.8604 60.4717 11.8724C60.9903 11.8247 61.5071 11.9812 61.9121 12.3086C62.317 12.636 62.5783 13.1086 62.6402 13.6257L61.668 13.6257Z" fill="white"/>
<path id="Vector_15" d="M63.6322 15.603C63.6322 14.6912 64.3111 14.1656 65.5161 14.0909L66.8882 14.0118V13.5746C66.8882 13.0396 66.5345 12.7375 65.8512 12.7375C65.2931 12.7375 64.9065 12.9424 64.7955 13.3005H63.8277C63.9299 12.4305 64.7483 11.8724 65.8973 11.8724C67.1672 11.8724 67.8835 12.5046 67.8835 13.5746V17.0355H66.9212V16.3237H66.8421C66.6815 16.579 66.4561 16.7872 66.1888 16.9269C65.9215 17.0666 65.6219 17.1329 65.3206 17.119C65.108 17.1411 64.893 17.1184 64.6897 17.0524C64.4864 16.9864 64.2991 16.8784 64.14 16.7356C63.981 16.5928 63.8536 16.4182 63.7661 16.2231C63.6786 16.0281 63.633 15.8168 63.6322 15.603ZM66.8882 15.1702V14.7467L65.6513 14.8258C64.9537 14.8725 64.6373 15.1098 64.6373 15.5563C64.6373 16.0122 65.0328 16.2775 65.5766 16.2775C65.7359 16.2937 65.8969 16.2776 66.0499 16.2302C66.2029 16.1829 66.3448 16.1052 66.4672 16.0019C66.5895 15.8986 66.6899 15.7717 66.7622 15.6289C66.8345 15.486 66.8774 15.33 66.8882 15.1702ZM65.2975 11.1232L66.4653 9.52319H67.6374L66.3301 11.1232H65.2975Z" fill="white"/>
<path id="Vector_16" d="M69.4489 11.9702H70.4112V12.7469H70.4859C70.5936 12.4773 70.784 12.2487 71.0298 12.0941C71.2755 11.9394 71.5639 11.8666 71.8536 11.8862C72.0033 11.8841 72.1528 11.8981 72.2996 11.9279V12.9144C72.1161 12.8752 71.9291 12.855 71.7415 12.854C71.5767 12.8392 71.4105 12.8591 71.2538 12.9123C71.097 12.9655 70.9531 13.051 70.8314 13.1631C70.7096 13.2753 70.6126 13.4116 70.5467 13.5635C70.4808 13.7153 70.4474 13.8793 70.4486 14.0448V17.0356H69.4489L69.4489 11.9702Z" fill="white"/>
<path id="Vector_17" d="M73.218 17.5424H74.2413C74.3258 17.9099 74.7488 18.1472 75.4233 18.1472C76.256 18.1472 76.7492 17.7517 76.7492 17.0821V16.1099H76.6745C76.5177 16.3821 76.2887 16.6056 76.0129 16.7557C75.737 16.9059 75.425 16.9768 75.1113 16.9608C73.8183 16.9608 73.018 15.9611 73.018 14.4446C73.018 12.9001 73.8271 11.8861 75.1212 11.8861C75.4427 11.8749 75.7611 11.9523 76.0417 12.1098C76.3222 12.2673 76.554 12.4988 76.7119 12.7792H76.791V11.9701H77.7489V17.0772C77.7489 18.2356 76.8415 18.9705 75.409 18.9705C74.1435 18.9706 73.3246 18.4031 73.218 17.5424ZM76.7679 14.4396C76.7679 13.4306 76.2461 12.7841 75.3947 12.7841C74.5346 12.7841 74.0512 13.4306 74.0512 14.4396C74.0512 15.4492 74.5346 16.0957 75.3947 16.0957C76.2516 16.0956 76.7679 15.4541 76.7679 14.4396Z" fill="white"/>
<path id="Vector_18" d="M79.0528 15.6029C79.0528 14.6911 79.7317 14.1655 80.9368 14.0908L82.3089 14.0117V13.5745C82.3089 13.0395 81.9552 12.7374 81.2719 12.7374C80.7138 12.7374 80.3271 12.9423 80.2162 13.3004H79.2484C79.3505 12.4304 80.1689 11.8723 81.318 11.8723C82.5879 11.8723 83.3042 12.5045 83.3042 13.5745V17.0354H82.3418V16.3236H82.2628C82.1022 16.5789 81.8768 16.7871 81.6095 16.9268C81.3422 17.0665 81.0426 17.1328 80.7413 17.1189C80.5286 17.141 80.3137 17.1183 80.1104 17.0523C79.907 16.9862 79.7198 16.8783 79.5607 16.7355C79.4016 16.5927 79.2742 16.4181 79.1868 16.223C79.0993 16.028 79.0537 15.8167 79.0528 15.6029ZM82.3089 15.1701V14.7466L81.0719 14.8257C80.3744 14.8724 80.058 15.1097 80.058 15.5562C80.058 16.0121 80.4535 16.2774 80.9973 16.2774C81.1566 16.2935 81.3176 16.2775 81.4706 16.2301C81.6235 16.1828 81.7655 16.1051 81.8878 16.0018C82.0102 15.8985 82.1105 15.7716 82.1829 15.6287C82.2552 15.4859 82.2981 15.3299 82.3089 15.1701Z" fill="white"/>
<path id="Vector_19" d="M84.9157 9.99292H85.9154V17.0356H84.9157V9.99292Z" fill="white"/>
<path id="Vector_20" d="M87.305 14.5007C87.2732 14.1679 87.3113 13.832 87.4168 13.5147C87.5224 13.1974 87.6931 12.9057 87.918 12.6582C88.1429 12.4108 88.4171 12.213 88.7229 12.0777C89.0287 11.9424 89.3594 11.8726 89.6938 11.8726C90.0282 11.8726 90.3589 11.9424 90.6647 12.0777C90.9705 12.213 91.2446 12.4108 91.4696 12.6582C91.6945 12.9057 91.8652 13.1974 91.9707 13.5147C92.0763 13.832 92.1144 14.1679 92.0825 14.5007C92.115 14.834 92.0774 15.1703 91.9721 15.4881C91.8668 15.8059 91.6962 16.0982 91.4712 16.3461C91.2462 16.5941 90.9719 16.7922 90.6658 16.9278C90.3597 17.0634 90.0286 17.1334 89.6938 17.1334C89.359 17.1334 89.0279 17.0634 88.7218 16.9278C88.4157 16.7922 88.1413 16.5941 87.9163 16.3461C87.6914 16.0982 87.5208 15.8059 87.4155 15.4881C87.3102 15.1703 87.2726 14.834 87.305 14.5007ZM91.0543 14.5007C91.0543 13.4028 90.5611 12.7607 89.6954 12.7607C88.8265 12.7607 88.3377 13.4028 88.3377 14.5008C88.3377 15.6075 88.8265 16.2447 89.6954 16.2447C90.5611 16.2447 91.0543 15.6031 91.0543 14.5007Z" fill="white"/>
<path id="Vector_21" d="M100.456 15.6678C100.32 16.1308 100.025 16.5312 99.6242 16.7991C99.223 17.067 98.7403 17.1853 98.2607 17.1333C97.927 17.1421 97.5954 17.0782 97.2888 16.946C96.9823 16.8138 96.7082 16.6164 96.4856 16.3677C96.2629 16.1189 96.0971 15.8247 95.9996 15.5054C95.9021 15.1861 95.8752 14.8495 95.9208 14.5188C95.8764 14.1871 95.9037 13.8497 96.001 13.5294C96.0983 13.2092 96.2633 12.9136 96.4847 12.6627C96.7062 12.4117 96.979 12.2113 97.2846 12.075C97.5903 11.9386 97.9216 11.8695 98.2563 11.8724C99.6657 11.8724 100.516 12.8353 100.516 14.4259V14.7748H96.9392V14.8308C96.9235 15.0167 96.9469 15.2038 97.0078 15.3801C97.0686 15.5564 97.1657 15.7181 97.2927 15.8547C97.4197 15.9913 97.5739 16.0999 97.7453 16.1735C97.9167 16.247 98.1016 16.284 98.2882 16.2819C98.5273 16.3106 98.7695 16.2675 98.9841 16.1582C99.1987 16.0488 99.3759 15.8781 99.4933 15.6678L100.456 15.6678ZM96.9391 14.0354H99.4976C99.5102 13.8654 99.4871 13.6947 99.4298 13.5341C99.3725 13.3736 99.2822 13.2268 99.1648 13.1032C99.0473 12.9796 98.9054 12.882 98.748 12.8166C98.5905 12.7511 98.4212 12.7193 98.2508 12.7232C98.0779 12.7211 97.9063 12.7535 97.7461 12.8187C97.586 12.8839 97.4405 12.9805 97.3183 13.1028C97.196 13.2251 97.0995 13.3706 97.0344 13.5308C96.9693 13.6909 96.9369 13.8625 96.9391 14.0354Z" fill="white"/>
<path id="Vector_22" d="M101.858 11.9702H102.821V12.7749H102.895C103.022 12.4859 103.236 12.2436 103.507 12.0818C103.778 11.9201 104.092 11.8469 104.407 11.8724C104.653 11.8539 104.901 11.891 105.131 11.9811C105.361 12.0712 105.568 12.212 105.737 12.3929C105.905 12.5738 106.03 12.7903 106.104 13.0264C106.177 13.2624 106.196 13.5119 106.16 13.7564V17.0355H105.161V14.0074C105.161 13.1934 104.807 12.7886 104.068 12.7886C103.9 12.7808 103.733 12.8093 103.578 12.8721C103.423 12.9349 103.283 13.0305 103.168 13.1525C103.053 13.2744 102.966 13.4197 102.912 13.5785C102.859 13.7372 102.84 13.9057 102.858 14.0722V17.0355H101.858V11.9702Z" fill="white"/>
<path id="Vector_23" d="M114.738 15.6678C114.602 16.1308 114.308 16.5312 113.906 16.7991C113.505 17.067 113.022 17.1853 112.543 17.1333C112.209 17.1421 111.877 17.0782 111.571 16.946C111.264 16.8138 110.99 16.6164 110.768 16.3677C110.545 16.1189 110.379 15.8247 110.282 15.5054C110.184 15.1861 110.157 14.8495 110.203 14.5188C110.158 14.1871 110.186 13.8497 110.283 13.5294C110.38 13.2092 110.545 12.9136 110.767 12.6627C110.988 12.4117 111.261 12.2113 111.567 12.075C111.872 11.9386 112.204 11.8695 112.538 11.8724C113.948 11.8724 114.798 12.8353 114.798 14.4259V14.7748H111.221V14.8308C111.206 15.0167 111.229 15.2038 111.29 15.3801C111.351 15.5564 111.448 15.7181 111.575 15.8547C111.702 15.9913 111.856 16.0999 112.027 16.1735C112.199 16.247 112.384 16.284 112.57 16.2819C112.809 16.3106 113.052 16.2675 113.266 16.1582C113.481 16.0488 113.658 15.8781 113.775 15.6678L114.738 15.6678ZM111.221 14.0354H113.78C113.792 13.8654 113.769 13.6947 113.712 13.5341C113.655 13.3736 113.564 13.2268 113.447 13.1032C113.329 12.9796 113.187 12.882 113.03 12.8166C112.873 12.7511 112.703 12.7193 112.533 12.7232C112.36 12.7211 112.188 12.7535 112.028 12.8187C111.868 12.8839 111.723 12.9805 111.6 13.1028C111.478 13.225 111.382 13.3706 111.316 13.5308C111.251 13.6909 111.219 13.8625 111.221 14.0354Z" fill="white"/>
<path id="Vector_24" d="M116.187 9.99292H117.186V17.0356H116.187V9.99292Z" fill="white"/>
</g>
</g>
</g>
</g>
<defs>
<clipPath id="clip0_1_254">
<rect width="134.61" height="44.996" fill="white" transform="translate(0.25 0.501953)"/>
</clipPath>
</defs>
</svg>
