<svg width="153" height="46" viewBox="0 0 153 46" fill="none" xmlns="http://www.w3.org/2000/svg">
<g id="es.svg" clip-path="url(#clip0_1_292)">
<path id="Vector" d="M147.11 0.5H6.48499C3.37838 0.5 0.859985 3.0184 0.859985 6.125V39.875C0.859985 42.9816 3.37838 45.5 6.48499 45.5H147.11C150.217 45.5 152.735 42.9816 152.735 39.875V6.125C152.735 3.0184 150.217 0.5 147.11 0.5Z" fill="black"/>
<path id="Vector_2" d="M147.11 1.4C148.363 1.4 149.565 1.89781 150.451 2.78392C151.337 3.67003 151.835 4.87185 151.835 6.125V39.875C151.835 41.1281 151.337 42.33 150.451 43.2161C149.565 44.1022 148.363 44.6 147.11 44.6H6.48499C5.23184 44.6 4.03001 44.1022 3.14391 43.2161C2.2578 42.33 1.75999 41.1281 1.75999 39.875V6.125C1.75999 4.87185 2.2578 3.67003 3.14391 2.78392C4.03001 1.89781 5.23184 1.4 6.48499 1.4H147.11ZM147.11 0.5H6.48499C4.99314 0.5 3.5624 1.09263 2.50751 2.14752C1.45262 3.20242 0.859985 4.63316 0.859985 6.125V39.875C0.859985 41.3668 1.45262 42.7976 2.50751 43.8525C3.5624 44.9074 4.99314 45.5 6.48499 45.5H147.11C148.602 45.5 150.033 44.9074 151.087 43.8525C152.142 42.7976 152.735 41.3668 152.735 39.875V6.125C152.735 4.63316 152.142 3.20242 151.087 2.14752C150.033 1.09263 148.602 0.5 147.11 0.5Z" fill="#A6A6A6"/>
<path id="Vector_3" d="M77.5175 24.9688C76.5728 24.9732 75.6506 25.2574 74.8673 25.7855C74.084 26.3135 73.4747 27.0618 73.1163 27.9358C72.7578 28.8099 72.6663 29.7705 72.8534 30.6965C73.0404 31.6225 73.4975 32.4723 74.1671 33.1387C74.8366 33.8052 75.6886 34.2583 76.6155 34.441C77.5423 34.6236 78.5025 34.5276 79.3748 34.1651C80.2472 33.8026 80.9926 33.1898 81.517 32.404C82.0414 31.6182 82.3212 30.6947 82.3212 29.75C82.3304 29.1177 82.2122 28.49 81.9738 27.9043C81.7354 27.3186 81.3815 26.7868 80.9333 26.3407C80.4851 25.8946 79.9517 25.5432 79.3648 25.3075C78.778 25.0718 78.1498 24.9566 77.5175 24.9688ZM77.5175 32.6525C76.9365 32.6931 76.3568 32.5581 75.8536 32.2648C75.3504 31.9716 74.9471 31.5338 74.696 31.0083C74.445 30.4827 74.3578 29.8939 74.4459 29.3182C74.5339 28.7425 74.7932 28.2066 75.1898 27.7802C75.5865 27.3538 76.1023 27.0565 76.6701 26.9271C77.2379 26.7977 77.8316 26.8421 78.3738 27.0546C78.9161 27.2671 79.3819 27.6377 79.7107 28.1184C80.0395 28.5991 80.2161 29.1676 80.2175 29.75C80.2356 30.119 80.1796 30.4879 80.0529 30.835C79.9262 31.182 79.7313 31.5002 79.4796 31.7707C79.228 32.0412 78.9247 32.2586 78.5877 32.4101C78.2508 32.5615 77.8868 32.6439 77.5175 32.6525ZM67.0437 24.9688C66.0986 24.971 65.1753 25.2533 64.3905 25.78C63.6057 26.3067 62.9946 27.0542 62.6345 27.9281C62.2743 28.8019 62.1812 29.7629 62.367 30.6897C62.5527 31.6164 63.009 32.4673 63.6781 33.1348C64.3472 33.8024 65.1992 34.2566 66.1263 34.4402C67.0535 34.6238 68.0143 34.5284 68.8873 34.1662C69.7603 33.804 70.5063 33.1912 71.0312 32.4052C71.5561 31.6191 71.8362 30.6952 71.8362 29.75C71.8454 29.1177 71.7273 28.49 71.4888 27.9043C71.2504 27.3186 70.8965 26.7868 70.4483 26.3407C70.0001 25.8946 69.4667 25.5432 68.8798 25.3075C68.293 25.0718 67.6648 24.9566 67.0325 24.9688H67.0437ZM67.0437 32.6525C66.4625 32.6954 65.8818 32.5624 65.3772 32.2706C64.8726 31.9789 64.4676 31.542 64.2148 31.0169C63.9619 30.4917 63.8731 29.9026 63.9598 29.3263C64.0464 28.7499 64.3046 28.213 64.7007 27.7854C65.0968 27.3578 65.6124 27.0594 66.1805 26.929C66.7485 26.7986 67.3427 26.8422 67.8856 27.0542C68.4286 27.2661 68.8951 27.6367 69.2245 28.1175C69.5539 28.5983 69.7309 29.1672 69.7325 29.75C69.7506 30.119 69.6947 30.4879 69.5679 30.835C69.4412 31.182 69.2463 31.5002 68.9946 31.7707C68.743 32.0412 68.4397 32.2586 68.1027 32.4101C67.7658 32.5615 67.4018 32.6439 67.0325 32.6525H67.0437ZM54.5675 26.4425V28.4675H59.4275C59.3513 29.4213 58.9548 30.3213 58.3025 31.0213C57.8163 31.5165 57.2317 31.9045 56.5865 32.1603C55.9413 32.416 55.2497 32.5339 54.5562 32.5063C53.1241 32.5063 51.7506 31.9373 50.7379 30.9246C49.7252 29.9119 49.1562 28.5384 49.1562 27.1063C49.1562 25.6741 49.7252 24.3006 50.7379 23.2879C51.7506 22.2752 53.1241 21.7063 54.5562 21.7063C55.9263 21.6839 57.2492 22.2058 58.235 23.1575L59.6637 21.7288C58.9983 21.0549 58.2043 20.5215 57.3289 20.1601C56.4535 19.7988 55.5145 19.6168 54.5675 19.625C53.5674 19.5861 52.5697 19.7495 51.6342 20.1054C50.6987 20.4612 49.8447 21.0023 49.1233 21.6961C48.402 22.39 47.8281 23.2223 47.4361 24.1432C47.0441 25.0642 46.842 26.0547 46.842 27.0556C46.842 28.0565 47.0441 29.0471 47.4361 29.968C47.8281 30.889 48.402 31.7213 49.1233 32.4151C49.8447 33.109 50.6987 33.65 51.6342 34.0059C52.5697 34.3618 53.5674 34.5252 54.5675 34.4863C55.5304 34.5298 56.4915 34.3665 57.3861 34.0075C58.2807 33.6485 59.088 33.1021 59.7537 32.405C60.9324 31.11 61.5617 29.4077 61.5087 27.6575C61.5124 27.2311 61.4747 26.8054 61.3962 26.3863L54.5675 26.4425ZM105.541 28.0175C105.248 27.1543 104.699 26.4006 103.968 25.8562C103.237 25.3118 102.357 25.0023 101.446 24.9688C100.831 24.9676 100.222 25.0926 99.6566 25.3361C99.0915 25.5796 98.5823 25.9365 98.1605 26.3846C97.7388 26.8327 97.4134 27.3626 97.2045 27.9414C96.9957 28.5203 96.9078 29.1358 96.9462 29.75C96.9326 30.3788 97.0458 31.0039 97.2791 31.5879C97.5124 32.172 97.861 32.703 98.3042 33.1493C98.7473 33.5956 99.2759 33.948 99.8582 34.1854C100.441 34.4229 101.065 34.5405 101.694 34.5313C102.481 34.5355 103.256 34.3445 103.951 33.9754C104.646 33.6063 105.239 33.0706 105.676 32.4163L104.045 31.2913C103.802 31.6971 103.457 32.0329 103.045 32.2656C102.633 32.4983 102.167 32.62 101.694 32.6188C101.206 32.6373 100.725 32.5089 100.311 32.25C99.8982 31.9912 99.5723 31.614 99.3762 31.1675L105.777 28.5238L105.541 28.0175ZM99.0162 29.615C98.9934 29.267 99.0403 28.918 99.1541 28.5884C99.2678 28.2587 99.4462 27.9551 99.6788 27.6953C99.9114 27.4355 100.193 27.2247 100.509 27.0752C100.824 26.9258 101.165 26.8407 101.514 26.825C101.877 26.8011 102.239 26.8843 102.555 27.0643C102.871 27.2443 103.127 27.5132 103.291 27.8375L99.0162 29.615ZM93.8187 34.25H95.9225V20.1875H93.8187V34.25ZM90.3762 26.0375H90.2975C89.9804 25.683 89.592 25.3995 89.1577 25.2057C88.7234 25.0118 88.2531 24.9119 87.7775 24.9125C86.5481 24.9721 85.3887 25.5025 84.5397 26.3937C83.6907 27.2848 83.2171 28.4685 83.2171 29.6994C83.2171 30.9303 83.6907 32.1139 84.5397 33.0051C85.3887 33.8963 86.5481 34.4266 87.7775 34.4863C88.2542 34.4943 88.7269 34.3977 89.1623 34.2033C89.5977 34.009 89.9852 33.7215 90.2975 33.3613H90.365V34.0475C90.365 35.8813 89.3862 36.86 87.8112 36.86C87.2867 36.8477 86.7776 36.6796 86.3489 36.3771C85.9202 36.0746 85.5911 35.6514 85.4037 35.1613L83.57 35.9263C83.9152 36.7659 84.5033 37.4833 85.259 37.9864C86.0147 38.4895 86.9034 38.7554 87.8112 38.75C90.275 38.75 92.3112 37.2988 92.3112 33.7663V25.25H90.3762V26.0375ZM87.9687 32.6525C87.2431 32.5886 86.5676 32.2551 86.0757 31.7178C85.5837 31.1806 85.3108 30.4785 85.3108 29.75C85.3108 29.0215 85.5837 28.3194 86.0757 27.7822C86.5676 27.2449 87.2431 26.9115 87.9687 26.8475C88.3285 26.866 88.681 26.9563 89.0054 27.1131C89.3297 27.2698 89.6195 27.49 89.8574 27.7604C90.0954 28.0309 90.2769 28.3463 90.3911 28.688C90.5053 29.0297 90.55 29.3908 90.5225 29.75C90.5532 30.1108 90.5104 30.474 90.3967 30.8178C90.283 31.1616 90.1007 31.4787 89.8609 31.75C89.6212 32.0213 89.3289 32.2412 89.0017 32.3963C88.6745 32.5514 88.3193 32.6386 87.9575 32.6525H87.9687ZM115.396 20.1875H110.367V34.25H112.471V28.9175H115.407C116.007 28.9606 116.609 28.8797 117.176 28.6798C117.743 28.48 118.263 28.1655 118.703 27.7559C119.143 27.3464 119.494 26.8506 119.734 26.2994C119.973 25.7483 120.097 25.1536 120.097 24.5525C120.097 23.9514 119.973 23.3567 119.734 22.8056C119.494 22.2544 119.143 21.7586 118.703 21.3491C118.263 20.9395 117.743 20.625 117.176 20.4252C116.609 20.2253 116.007 20.1444 115.407 20.1875H115.396ZM115.396 26.9375H112.46V22.145H115.441C116.081 22.145 116.695 22.3992 117.148 22.8518C117.6 23.3043 117.854 23.9181 117.854 24.5581C117.854 25.1981 117.6 25.8119 117.148 26.2645C116.695 26.717 116.081 26.9713 115.441 26.9713L115.396 26.9375ZM128.367 24.9125C127.602 24.8667 126.839 25.0457 126.173 25.4274C125.508 25.8092 124.968 26.3771 124.621 27.0613L126.489 27.8375C126.673 27.4982 126.952 27.2196 127.291 27.0359C127.631 26.8521 128.016 26.771 128.401 26.8025C128.668 26.7713 128.939 26.7936 129.197 26.8681C129.456 26.9426 129.697 27.0678 129.906 27.2364C130.115 27.405 130.289 27.6137 130.417 27.8501C130.545 28.0866 130.625 28.3462 130.651 28.6138V28.76C129.976 28.4023 129.222 28.2168 128.457 28.22C126.444 28.22 124.407 29.345 124.407 31.3813C124.427 31.8154 124.534 32.2412 124.721 32.6334C124.909 33.0257 125.173 33.3764 125.498 33.6648C125.823 33.9532 126.203 34.1735 126.614 34.3127C127.026 34.4518 127.462 34.507 127.895 34.475C128.425 34.5131 128.955 34.4078 129.43 34.1702C129.905 33.9327 130.308 33.5717 130.595 33.125H130.662V34.25H132.687V28.8388C132.687 26.375 130.82 24.9463 128.424 24.9463L128.367 24.9125ZM128.109 32.6188C127.422 32.6188 126.466 32.27 126.466 31.4263C126.466 30.3013 127.659 29.93 128.716 29.93C129.385 29.9135 130.045 30.0767 130.629 30.4025C130.558 31.0116 130.27 31.5747 129.818 31.9882C129.365 32.4016 128.778 32.6376 128.165 32.6525L128.109 32.6188ZM140.067 25.25L137.66 31.3475H137.592L135.095 25.25H132.845L136.591 33.7775L134.454 38.5138H136.647L142.407 25.25H140.067ZM121.156 34.25H123.26V20.1875H121.156V34.25Z" fill="white"/>
<path id="Vector_4" d="M12.605 8.98256C12.2383 9.42256 12.0532 9.98583 12.0875 10.5576V35.4426C12.0532 36.0143 12.2383 36.5776 12.605 37.0176L12.6837 37.0963L26.6225 23.1688V22.8426L12.6837 8.90381L12.605 8.98256Z" fill="url(#paint0_linear_1_292)"/>
<path id="Vector_5" d="M31.235 27.8151L26.6225 23.1688V22.8426L31.235 18.1851L31.3362 18.2413L36.86 21.3801C38.435 22.2688 38.435 23.7313 36.86 24.6313L31.3587 27.7588L31.235 27.8151Z" fill="url(#paint1_linear_1_292)"/>
<path id="Vector_6" d="M31.37 27.7475L26.6225 23L12.605 37.0175C12.926 37.2997 13.3355 37.4609 13.7628 37.4732C14.1901 37.4856 14.6082 37.3482 14.945 37.085L31.3812 27.7475" fill="url(#paint2_linear_1_292)"/>
<path id="Vector_7" d="M31.37 18.2526L14.9337 8.91512C14.597 8.65188 14.1788 8.51456 13.7516 8.52689C13.3243 8.53921 12.9148 8.70041 12.5937 8.98262L26.6225 23.0001L31.37 18.2526Z" fill="url(#paint3_linear_1_292)"/>
<path id="Vector_8" opacity="0.2" d="M31.235 27.6462L14.9337 36.9275C14.6089 37.1703 14.2143 37.3016 13.8087 37.3016C13.4032 37.3016 13.0085 37.1703 12.6837 36.9275L12.605 37.0062L12.6837 37.085C13.0078 37.3296 13.4027 37.4619 13.8087 37.4619C14.2147 37.4619 14.6097 37.3296 14.9337 37.085L31.37 27.7475L31.235 27.6462Z" fill="black"/>
<path id="Vector_9" opacity="0.12" d="M12.605 36.86C12.2383 36.42 12.0532 35.8567 12.0875 35.285V35.4537C12.0532 36.0255 12.2383 36.5888 12.605 37.0288L12.6837 36.95L12.605 36.86ZM36.86 24.4625L31.235 27.6463L31.3362 27.7475L36.86 24.62C37.1734 24.4728 37.4425 24.2455 37.64 23.961C37.8375 23.6766 37.9565 23.3451 37.985 23C37.9217 23.3135 37.7874 23.6084 37.5924 23.8619C37.3974 24.1155 37.1468 24.3209 36.86 24.4625Z" fill="black"/>
<path id="Vector_10" opacity="0.25" d="M14.9337 9.07249L36.86 21.5375C37.1468 21.6791 37.3974 21.8845 37.5924 22.138C37.7874 22.3916 37.9217 22.6864 37.985 23C37.9565 22.6549 37.8375 22.3234 37.64 22.039C37.4425 21.7545 37.1734 21.5272 36.86 21.38L14.9337 8.91499C13.3587 8.02624 12.0762 8.76874 12.0762 10.5687V10.7375C12.11 8.92624 13.37 8.18374 14.9337 9.07249Z" fill="white"/>
<path id="Vector_11" d="M47.3 15.1249V8.37491H49.3587C49.8148 8.35432 50.2702 8.42645 50.6976 8.58695C51.1249 8.74745 51.5153 8.99297 51.845 9.30866C52.1603 9.62986 52.4068 10.012 52.5693 10.4318C52.7318 10.8516 52.8069 11.3001 52.79 11.7499C52.8084 12.1989 52.735 12.647 52.5745 13.0667C52.4139 13.4864 52.1696 13.869 51.8562 14.1912C51.5265 14.5068 51.1362 14.7524 50.7088 14.9129C50.2815 15.0734 49.826 15.1455 49.37 15.1249H47.3ZM48.1662 14.2924H49.3587C49.6976 14.3101 50.0365 14.2594 50.3554 14.1434C50.6743 14.0275 50.9666 13.8486 51.215 13.6174C51.4507 13.3694 51.6331 13.0758 51.7512 12.7546C51.8692 12.4334 51.9202 12.0915 51.9012 11.7499C51.9301 11.4097 51.8845 11.0673 51.7677 10.7465C51.6509 10.4257 51.4656 10.1342 51.2247 9.8922C50.9838 9.65024 50.6931 9.46365 50.3728 9.34539C50.0525 9.22713 49.7103 9.18005 49.37 9.20741H48.1662V14.2924ZM54.005 15.1249V8.37491H54.86V15.1249H54.005ZM58.325 15.2712C57.8067 15.2619 57.3038 15.0929 56.885 14.7874C56.4191 14.469 56.0898 13.9872 55.9625 13.4374L56.75 13.1224C56.8402 13.4854 57.0406 13.8116 57.3237 14.0562C57.5942 14.3031 57.9475 14.4396 58.3137 14.4387C58.6596 14.4501 58.9996 14.3473 59.2812 14.1462C59.4112 14.0558 59.5163 13.9344 59.5871 13.7928C59.6578 13.6513 59.6919 13.4943 59.6862 13.3362C59.6934 13.1698 59.6603 13.0043 59.5898 12.8535C59.5193 12.7027 59.4134 12.5711 59.2812 12.4699C58.893 12.2081 58.4631 12.0141 58.01 11.8962C57.5058 11.761 57.0398 11.5106 56.6487 11.1649C56.4991 11.0189 56.3809 10.8437 56.3016 10.6502C56.2222 10.4567 56.1834 10.249 56.1875 10.0399C56.1879 9.80114 56.2393 9.56521 56.3382 9.3479C56.4372 9.1306 56.5814 8.93695 56.7612 8.77991C57.1627 8.41245 57.6909 8.21486 58.235 8.22866C58.7354 8.20598 59.2282 8.35701 59.63 8.65616C59.9509 8.89038 60.1939 9.21573 60.3275 9.58991L59.54 9.91616C59.4711 9.67681 59.3247 9.4671 59.1237 9.31991C58.873 9.13955 58.572 9.04251 58.2631 9.04251C57.9543 9.04251 57.6532 9.13955 57.4025 9.31991C57.2925 9.39953 57.2034 9.50452 57.1427 9.62595C57.082 9.74738 57.0515 9.88166 57.0537 10.0174C57.0533 10.1425 57.0826 10.266 57.1393 10.3775C57.1961 10.489 57.2786 10.5854 57.38 10.6587C57.6701 10.8658 57.9935 11.0218 58.3362 11.1199C58.6193 11.2097 58.8972 11.3148 59.1687 11.4349C59.4071 11.5462 59.6334 11.6819 59.8437 11.8399C60.0663 11.9985 60.2445 12.2115 60.3612 12.4587C60.4847 12.7305 60.5462 13.0264 60.5412 13.3249C60.5468 13.6296 60.4772 13.931 60.3387 14.2024C60.2125 14.4469 60.0268 14.6558 59.7987 14.8099C59.5776 14.9617 59.3349 15.0793 59.0787 15.1587C58.8341 15.2316 58.5803 15.2695 58.325 15.2712ZM62.735 15.1249H61.8687V8.37491H64.1187C64.6692 8.36781 65.2011 8.57333 65.6037 8.94866C65.8028 9.13198 65.9617 9.35461 66.0704 9.60246C66.1791 9.85031 66.2353 10.118 66.2353 10.3887C66.2353 10.6593 66.1791 10.927 66.0704 11.1749C65.9617 11.4227 65.8028 11.6453 65.6037 11.8287C65.2017 12.205 64.6694 12.4107 64.1187 12.4024H62.735V15.1249ZM62.735 11.5587H64.1862C64.3508 11.5648 64.5146 11.5347 64.6662 11.4705C64.8179 11.4064 64.9535 11.3097 65.0637 11.1874C65.1726 11.0825 65.2592 10.9566 65.3184 10.8175C65.3775 10.6783 65.408 10.5286 65.408 10.3774C65.408 10.2262 65.3775 10.0765 65.3184 9.93734C65.2592 9.79817 65.1726 9.67235 65.0637 9.56741C64.9535 9.44509 64.8179 9.34845 64.6662 9.2843C64.5146 9.22015 64.3508 9.19006 64.1862 9.19616H62.735V11.5587ZM72.86 14.2474C72.2023 14.9014 71.3125 15.2685 70.385 15.2685C69.4575 15.2685 68.5677 14.9014 67.91 14.2474C67.2707 13.5707 66.9146 12.6752 66.9146 11.7443C66.9146 10.8134 67.2707 9.91782 67.91 9.24116C68.2342 8.91462 68.6197 8.65545 69.0445 8.4786C69.4693 8.30174 69.9249 8.21069 70.385 8.21069C70.8451 8.21069 71.3007 8.30174 71.7255 8.4786C72.1502 8.65545 72.5358 8.91462 72.86 9.24116C73.5018 9.91653 73.8596 10.8126 73.8596 11.7443C73.8596 12.676 73.5018 13.572 72.86 14.2474ZM68.5512 13.6849C69.0383 14.1699 69.6976 14.4422 70.385 14.4422C71.0723 14.4422 71.7317 14.1699 72.2187 13.6849C72.6994 13.1551 72.9656 12.4653 72.9656 11.7499C72.9656 11.0345 72.6994 10.3448 72.2187 9.81491C71.7317 9.32989 71.0723 9.05759 70.385 9.05759C69.6976 9.05759 69.0383 9.32989 68.5512 9.81491C68.0706 10.3448 67.8044 11.0345 67.8044 11.7499C67.8044 12.4653 68.0706 13.1551 68.5512 13.6849ZM75.11 15.1249V8.37491H76.1675L79.4525 13.6287V8.37491H80.3187V15.1249H79.4187L75.9875 9.62366V15.1249H75.11ZM81.86 15.1249V8.37491H82.7262V15.1249H81.86ZM84.2225 15.1249V8.37491H86.6637C87.1706 8.36533 87.6619 8.55056 88.0362 8.89241C88.2222 9.05661 88.3699 9.25953 88.469 9.48693C88.5681 9.71433 88.6163 9.96067 88.61 10.2087C88.6153 10.5085 88.5289 10.8029 88.3625 11.0524C88.1973 11.2948 87.9673 11.4858 87.6987 11.6037C88.0251 11.7117 88.3113 11.9155 88.52 12.1887C88.7363 12.4643 88.8515 12.8058 88.8462 13.1562C88.852 13.4155 88.8005 13.6729 88.6955 13.9101C88.5905 14.1474 88.4346 14.3585 88.2387 14.5287C87.847 14.89 87.3316 15.0873 86.7987 15.0799L84.2225 15.1249ZM85.0887 11.2662H86.6637C86.8108 11.2723 86.9575 11.2463 87.0935 11.1899C87.2295 11.1336 87.3516 11.0483 87.4512 10.9399C87.5501 10.8488 87.6296 10.7388 87.685 10.6163C87.7404 10.4938 87.7706 10.3614 87.7737 10.2271C87.7769 10.0927 87.7529 9.95905 87.7033 9.83412C87.6537 9.70919 87.5795 9.59553 87.485 9.49991C87.391 9.39356 87.2747 9.30921 87.1445 9.25283C87.0142 9.19645 86.8731 9.16942 86.7312 9.17366H85.0887V11.2662ZM85.0887 14.2924H86.8325C86.9849 14.2975 87.1365 14.2689 87.2765 14.2086C87.4165 14.1483 87.5415 14.0579 87.6425 13.9437C87.8408 13.7379 87.9535 13.4644 87.9575 13.1787C87.9575 12.8803 87.839 12.5941 87.628 12.3832C87.417 12.1722 87.1309 12.0537 86.8325 12.0537H85.0887V14.2924ZM90.005 15.1249V8.37491H90.86V14.2924H93.785V15.1249H90.005ZM98.8362 9.20741H95.7537V11.3449H98.5212V12.1549H95.7537V14.2924H98.825V15.1249H94.8875V8.37491H98.825L98.8362 9.20741ZM106.396 9.20741H103.325V11.3449H106.092V12.1549H103.325V14.2924H106.396V15.1249H102.459V8.37491H106.396V9.20741ZM107.735 15.1249V8.37491H108.86L112.145 13.6287V8.37491H113.011V15.1249H112.111L108.68 9.62366V15.1249H107.735Z" fill="white" stroke="white" stroke-width="0.225" stroke-miterlimit="10"/>
</g>
<defs>
<linearGradient id="paint0_linear_1_292" x1="25.385" y1="10.2988" x2="6.50749" y2="29.1763" gradientUnits="userSpaceOnUse">
<stop stop-color="#00A0FF"/>
<stop offset="0.01" stop-color="#00A1FF"/>
<stop offset="0.26" stop-color="#00BEFF"/>
<stop offset="0.51" stop-color="#00D2FF"/>
<stop offset="0.76" stop-color="#00DFFF"/>
<stop offset="1" stop-color="#00E3FF"/>
</linearGradient>
<linearGradient id="paint1_linear_1_292" x1="38.9187" y1="23.0001" x2="11.705" y2="23.0001" gradientUnits="userSpaceOnUse">
<stop stop-color="#FFE000"/>
<stop offset="0.41" stop-color="#FFBD00"/>
<stop offset="0.78" stop-color="#FFA500"/>
<stop offset="1" stop-color="#FF9C00"/>
</linearGradient>
<linearGradient id="paint2_linear_1_292" x1="28.7937" y1="25.5875" x2="3.18874" y2="51.1813" gradientUnits="userSpaceOnUse">
<stop stop-color="#FF3A44"/>
<stop offset="1" stop-color="#C31162"/>
</linearGradient>
<linearGradient id="paint3_linear_1_292" x1="9.07249" y1="0.702616" x2="20.5025" y2="12.1326" gradientUnits="userSpaceOnUse">
<stop stop-color="#32A071"/>
<stop offset="0.07" stop-color="#2DA771"/>
<stop offset="0.48" stop-color="#15CF74"/>
<stop offset="0.8" stop-color="#06E775"/>
<stop offset="1" stop-color="#00F076"/>
</linearGradient>
<clipPath id="clip0_1_292">
<rect width="151.875" height="45" fill="white" transform="translate(0.859985 0.5)"/>
</clipPath>
</defs>
</svg>
