<svg width="20" height="21" viewBox="0 0 20 21" fill="none" xmlns="http://www.w3.org/2000/svg">
<g id="Link &#226;&#134;&#146; SVG" clip-path="url(#clip0_1_400)">
<path id="Vector" d="M20 4.36648C19.2511 4.69847 18.4568 4.91644 17.6433 5.01314C18.4998 4.50018 19.1407 3.69344 19.4467 2.74314C18.6415 3.22105 17.7604 3.55758 16.8417 3.73814C16.2241 3.07765 15.4057 2.63964 14.5135 2.49218C13.6214 2.34473 12.7055 2.4961 11.9083 2.92276C11.111 3.34941 10.477 4.02747 10.1048 4.85155C9.73261 5.67563 9.64303 6.59958 9.85 7.47981C8.21893 7.39846 6.62318 6.97509 5.1663 6.23717C3.70943 5.49926 2.42397 4.46329 1.39333 3.19648C0.866797 4.09945 0.705023 5.16943 0.94108 6.18769C1.17714 7.20596 1.7932 8.09562 2.66333 8.67481C2.01165 8.65404 1.37442 8.47744 0.805 8.15981V8.21148C0.805 10.1998 2.21833 11.8581 4.095 12.2348C3.49119 12.399 2.85782 12.423 2.24333 12.3048C2.5055 13.1202 3.01593 13.8332 3.70324 14.3442C4.39054 14.8552 5.22037 15.1386 6.07667 15.1548C5.2251 15.8234 4.25009 16.3175 3.2074 16.6089C2.16471 16.9003 1.0748 16.9833 0 16.8531C1.87626 18.0586 4.05986 18.6985 6.29 18.6965C13.8367 18.6965 17.9633 12.4431 17.9633 7.02148C17.9633 6.84314 17.96 6.66648 17.9517 6.49148C18.7533 5.91148 19.4483 5.18981 20 4.36648Z" fill="white"/>
</g>
<defs>
<clipPath id="clip0_1_400">
<rect width="20" height="20" fill="white" transform="translate(0 0.359863)"/>
</clipPath>
</defs>
</svg>
