<svg width="13" height="13" viewBox="0 0 13 13" fill="none" xmlns="http://www.w3.org/2000/svg">
<g id="Icon" clip-path="url(#clip0_1_65)">
<path id="Vector" d="M1.038 4.08799C1.15 3.97599 1.284 3.91999 1.44 3.91999C1.596 3.91999 1.726 3.97599 1.83 4.08799L5.37 7.69999L8.91 4.08799C9.022 3.97599 9.156 3.91999 9.312 3.91999C9.468 3.91999 9.6 3.97599 9.708 4.08799C9.816 4.19999 9.87 4.33599 9.87 4.49599C9.87 4.65599 9.814 4.79199 9.702 4.90399L5.766 8.91199C5.662 9.01599 5.532 9.06799 5.376 9.06799C5.22 9.06799 5.086 9.01599 4.974 8.91199L1.038 4.90399C0.925999 4.79199 0.869999 4.65599 0.869999 4.49599C0.869999 4.33599 0.925999 4.19999 1.038 4.08799Z" fill="white"/>
</g>
<defs>
<clipPath id="clip0_1_65">
<rect width="12.02" height="12" fill="white" transform="matrix(1 0 0 -1 0.860001 12.5)"/>
</clipPath>
</defs>
</svg>
