<svg width="20" height="21" viewBox="0 0 20 21" fill="none" xmlns="http://www.w3.org/2000/svg">
<g id="Link &#226;&#134;&#146; SVG" clip-path="url(#clip0_1_397)">
<path id="Vector" d="M10 2.16236C12.67 2.16236 12.9867 2.17236 14.0417 2.2207C16.7517 2.34403 18.0175 3.62986 18.1408 6.31986C18.1892 7.37403 18.1983 7.6907 18.1983 10.3607C18.1983 13.0315 18.1883 13.3474 18.1408 14.4015C18.0167 17.089 16.7542 18.3774 14.0417 18.5007C12.9867 18.549 12.6717 18.559 10 18.559C7.33 18.559 7.01333 18.549 5.95917 18.5007C3.2425 18.3765 1.98333 17.0849 1.86 14.4007C1.81167 13.3465 1.80167 13.0307 1.80167 10.3599C1.80167 7.68986 1.8125 7.37403 1.86 6.31903C1.98417 3.62986 3.24667 2.3432 5.95917 2.21986C7.01417 2.17236 7.33 2.16236 10 2.16236ZM10 0.359863C7.28417 0.359863 6.94417 0.37153 5.8775 0.419863C2.24583 0.58653 0.2275 2.60153 0.0608333 6.23653C0.0116667 7.30403 0 7.64403 0 10.3599C0 13.0757 0.0116667 13.4165 0.06 14.4832C0.226667 18.1149 2.24167 20.1332 5.87667 20.2999C6.94417 20.3482 7.28417 20.3599 10 20.3599C12.7158 20.3599 13.0567 20.3482 14.1233 20.2999C17.7517 20.1332 19.775 18.1182 19.9392 14.4832C19.9883 13.4165 20 13.0757 20 10.3599C20 7.64403 19.9883 7.30403 19.94 6.23736C19.7767 2.60903 17.7592 0.587363 14.1242 0.420697C13.0567 0.37153 12.7158 0.359863 10 0.359863ZM10 5.22486C7.16417 5.22486 4.865 7.52403 4.865 10.3599C4.865 13.1957 7.16417 15.4957 10 15.4957C12.8358 15.4957 15.135 13.1965 15.135 10.3599C15.135 7.52403 12.8358 5.22486 10 5.22486ZM10 13.6932C8.15917 13.6932 6.66667 12.2015 6.66667 10.3599C6.66667 8.51903 8.15917 7.02653 10 7.02653C11.8408 7.02653 13.3333 8.51903 13.3333 10.3599C13.3333 12.2015 11.8408 13.6932 10 13.6932ZM15.3383 3.82236C14.675 3.82236 14.1375 4.35986 14.1375 5.02236C14.1375 5.68486 14.675 6.22236 15.3383 6.22236C16.0008 6.22236 16.5375 5.68486 16.5375 5.02236C16.5375 4.35986 16.0008 3.82236 15.3383 3.82236Z" fill="white"/>
</g>
<defs>
<clipPath id="clip0_1_397">
<rect width="20" height="20" fill="white" transform="translate(0 0.359863)"/>
</clipPath>
</defs>
</svg>
