<svg width="16" height="17" viewBox="0 0 16 17" fill="none" xmlns="http://www.w3.org/2000/svg">
<g id="SVG" clip-path="url(#clip0_1_34)">
<path id="Vector" d="M7.91862 1.50891C7.83976 1.52099 7.74976 1.54386 7.67259 1.57988C7.59767 1.61484 7.56301 1.64861 7.54662 1.67155C7.53723 1.68469 7.49826 1.74007 7.49826 1.89983V2.89983H6.49826C5.56271 2.89983 4.8548 3.28204 4.35504 3.92115C3.83682 4.58388 3.50587 5.57747 3.49999 6.80485C3.48703 9.51007 2.81161 11.7189 1.5 12.8476V13.5004H14.5V12.8476C13.1884 11.7189 12.513 9.51007 12.5 6.80485C12.4948 5.70872 12.1709 4.70313 11.6357 3.99624C11.1154 3.30909 10.4001 2.89983 9.5 2.89983H8.5V1.89983C8.5 1.73918 8.46092 1.68374 8.45189 1.67107C8.43599 1.64876 8.40224 1.61565 8.32843 1.58112C8.25229 1.5455 8.16315 1.52269 8.08398 1.51034C8.04688 1.50455 8.01796 1.50199 8.00195 1.50092L7.99322 1.50042C7.97871 1.50138 7.95251 1.50372 7.91862 1.50891ZM5.58982 14.5004H1.07692C0.758297 14.5004 0.5 14.2593 0.5 13.962V12.6158C0.5 12.4527 0.579169 12.2985 0.715295 12.1962C1.7609 11.4112 2.48687 9.54044 2.5 6.80006C2.51335 4.01399 4 1.89983 6.49826 1.89983C6.49826 0.500416 8 0.496054 8.00437 0.500416C8.00437 0.500416 9.5 0.500416 9.5 1.89983C12 1.89983 13.4878 4.24707 13.5 6.80006C13.5131 9.54044 14.2391 11.4112 15.2847 12.1962C15.4208 12.2985 15.5 12.4527 15.5 12.6158V13.962C15.5 14.2593 15.2417 14.5004 14.9231 14.5004H10.4128C10.1084 16.0737 9.05415 16.5004 8 16.5004C6.5216 16.5004 5.82035 15.666 5.58982 14.5004ZM6.61636 14.5004C6.67766 14.7232 6.76053 14.9018 6.85852 15.038C7.03291 15.2803 7.33242 15.5004 8 15.5004C8.48081 15.5004 8.81225 15.3844 9.02621 15.179C9.14788 15.0622 9.29081 14.8594 9.38762 14.5004H6.61636Z" fill="white"/>
</g>
<defs>
<clipPath id="clip0_1_34">
<rect width="15" height="16" fill="white" transform="translate(0.5 0.5)"/>
</clipPath>
</defs>
</svg>
